<?xml version="1.0" standalone="no"?>
<!DOCTYPE svg PUBLIC "-//W3C//DTD SVG 20010904//EN"
 "http://www.w3.org/TR/2001/REC-SVG-20010904/DTD/svg10.dtd">
<svg version="1.0" xmlns="http://www.w3.org/2000/svg"
 width="330.000000pt" height="150.000000pt" viewBox="0 0 330.000000 150.000000"
 preserveAspectRatio="xMidYMid meet">

<g transform="translate(0.000000,150.000000) scale(0.100000,-0.100000)"
fill="#000000" stroke="none">
<path d="M240 940 c0 -12 7 -20 18 -20 16 0 17 -13 14 -160 l-3 -160 59 0 c79
0 102 23 102 102 0 37 -5 60 -15 68 -13 11 -13 15 0 33 24 34 19 91 -11 126
-24 29 -30 31 -95 31 -62 0 -69 -2 -69 -20z m122 -37 c35 -31 16 -103 -27
-103 -24 0 -25 3 -25 60 0 65 14 77 52 43z m16 -155 c17 -17 15 -68 -5 -90 -9
-10 -27 -18 -40 -18 -22 0 -23 4 -23 60 0 59 0 60 28 60 15 0 33 -5 40 -12z"/>
<path d="M520 940 c0 -14 7 -20 22 -20 17 0 19 -3 10 -12 -8 -8 -12 -58 -12
-160 l0 -148 25 0 c24 0 25 3 25 60 0 52 3 60 19 60 13 0 26 -18 45 -60 23
-50 31 -60 52 -60 l24 0 -30 60 c-34 67 -36 82 -15 100 11 9 15 32 15 78 0 58
-3 69 -27 94 -24 25 -34 28 -90 28 -56 0 -63 -2 -63 -20z m122 -37 c40 -36 15
-143 -34 -143 -16 0 -18 9 -18 80 0 68 2 80 17 80 9 0 25 -7 35 -17z"/>
<path d="M810 940 c0 -14 7 -20 21 -20 16 0 19 -3 11 -12 -8 -11 -52 -261 -52
-298 0 -5 9 -10 20 -10 14 0 21 9 25 38 10 59 13 62 49 62 36 0 46 -15 46 -72
0 -23 4 -28 26 -28 19 0 24 4 20 18 -2 9 -15 90 -27 180 l-23 162 -58 0 c-51
0 -58 -2 -58 -20z m100 -172 c0 -25 -4 -28 -31 -28 -24 0 -29 4 -25 18 2 9 7
42 11 72 11 95 18 101 31 30 7 -36 13 -77 14 -92z"/>
<path d="M1086 931 c-23 -24 -27 -36 -24 -72 3 -41 7 -46 66 -87 51 -36 62
-49 62 -71 0 -27 -26 -61 -47 -61 -17 0 -43 35 -43 58 0 15 -6 22 -20 22 -16
0 -20 -7 -20 -32 0 -44 43 -88 85 -88 50 0 85 44 85 106 l0 49 -65 43 c-49 32
-65 48 -65 66 0 23 27 56 47 56 15 0 43 -34 43 -53 0 -10 8 -17 20 -17 31 0
26 50 -8 83 -38 36 -80 36 -116 -2z"/>
<path d="M1310 940 c0 -12 7 -20 18 -20 16 0 17 -13 14 -160 l-3 -160 76 0 75
0 0 40 c0 33 -4 40 -19 40 -10 0 -21 -9 -24 -20 -4 -15 -14 -20 -36 -20 l-31
0 0 60 0 60 40 0 c33 0 40 3 40 20 0 17 -7 20 -40 20 l-40 0 0 60 0 60 30 0
c23 0 30 -4 30 -20 0 -15 7 -20 25 -20 23 0 25 4 25 40 l0 40 -90 0 c-83 0
-90 -1 -90 -20z"/>
<path d="M1570 940 c0 -14 7 -20 23 -20 22 0 22 -1 19 -140 -3 -131 -4 -140
-23 -140 -12 0 -19 -7 -19 -20 0 -18 7 -20 60 -20 53 0 60 2 60 20 0 13 -7 20
-20 20 -19 0 -20 7 -20 140 0 118 2 140 15 140 8 0 15 9 15 20 0 18 -7 20 -55
20 -48 0 -55 -2 -55 -20z"/>
<path d="M1750 940 c0 -12 7 -20 18 -20 16 0 17 -13 14 -160 -3 -156 -3 -160
17 -160 19 0 21 6 21 60 0 54 2 60 21 60 15 0 27 -15 47 -60 21 -47 32 -59 50
-60 12 0 22 2 22 4 0 2 -13 33 -30 67 -30 63 -30 63 -10 84 16 17 20 35 20 86
0 58 -3 68 -28 92 -25 24 -36 27 -95 27 -60 0 -67 -2 -67 -20z m132 -37 c23
-20 24 -90 2 -121 -8 -12 -26 -22 -40 -22 -23 0 -24 2 -24 80 0 75 1 80 22 80
12 0 30 -7 40 -17z"/>
<path d="M2067 932 c-26 -27 -27 -31 -27 -152 0 -121 1 -125 27 -152 37 -39
89 -39 126 0 26 27 27 31 27 153 0 124 0 125 -28 152 -39 37 -89 37 -125 -1z
m95 -29 c15 -14 18 -32 18 -117 0 -76 -4 -107 -16 -124 -18 -26 -41 -28 -66
-5 -26 23 -27 217 -1 245 20 22 41 23 65 1z"/>
<path d="M2290 830 l0 -130 350 0 350 0 0 130 0 130 -350 0 -350 0 0 -130z
m98 48 l10 -33 1 33 c1 17 6 32 11 32 6 0 10 -30 10 -70 0 -82 -21 -97 -37
-27 l-11 42 -1 -42 c-2 -73 -21 -48 -21 27 0 52 3 70 14 70 7 0 18 -15 24 -32z
m152 13 c24 -45 5 -121 -29 -121 -23 0 -31 19 -31 70 0 21 3 45 6 54 8 22 41
20 54 -3z m126 -22 c1 -20 4 -41 8 -47 12 -20 -13 -52 -39 -52 -24 0 -25 2
-25 71 l0 70 28 -3 c24 -3 27 -7 28 -39z m131 29 c13 -22 13 -130 0 -125 -7 2
-13 16 -15 30 -4 37 -22 34 -22 -3 0 -16 -4 -30 -10 -30 -6 0 -10 30 -10 70 0
68 1 70 24 70 14 0 28 -6 33 -12z m133 2 c0 -5 -9 -10 -20 -10 -13 0 -20 -7
-20 -20 0 -11 7 -20 15 -20 8 0 15 -4 15 -10 0 -5 -7 -10 -15 -10 -8 0 -15 -9
-15 -20 0 -13 7 -20 20 -20 11 0 20 -4 20 -10 0 -5 -13 -10 -30 -10 l-30 0 0
70 0 70 30 0 c17 0 30 -4 30 -10z"/>
<path d="M2500 840 c0 -27 5 -50 10 -50 6 0 10 23 10 50 0 28 -4 50 -10 50 -5
0 -10 -22 -10 -50z"/>
<path d="M2630 870 c0 -11 5 -20 10 -20 6 0 10 9 10 20 0 11 -4 20 -10 20 -5
0 -10 -9 -10 -20z"/>
<path d="M2630 810 c0 -11 5 -20 10 -20 6 0 10 9 10 20 0 11 -4 20 -10 20 -5
0 -10 -9 -10 -20z"/>
<path d="M2760 870 c0 -11 5 -20 10 -20 6 0 10 9 10 20 0 11 -4 20 -10 20 -5
0 -10 -9 -10 -20z"/>
</g>
</svg>
